<svg width="241" height="32" viewBox="0 0 241 32" fill="none" xmlns="http://www.w3.org/2000/svg">
<path fill-rule="evenodd" clip-rule="evenodd" d="M21.4721 0H8.39453L0 8.39453V32H23.6054L32 23.6054V10.5279L21.4721 0ZM15.0075 7.98254C15.0075 6.51928 13.7968 5.33344 12.3038 5.33344C10.8107 5.33344 9.59992 6.51927 9.59992 7.98254C9.59992 9.4458 10.8107 10.6316 12.3038 10.6316C13.7968 10.6316 15.0075 9.44579 15.0075 7.98254ZM15.0075 13.8668C15.0075 12.4035 13.7968 11.2176 12.3038 11.2176C10.8107 11.2176 9.59992 12.4035 9.59992 13.8668C9.59992 15.33 10.8107 16.5159 12.3038 16.5159C13.7968 16.5159 15.0075 15.33 15.0075 13.8668ZM18.1332 11.2176C19.6263 11.2176 20.837 12.4035 20.837 13.8668C20.837 15.33 19.6263 16.5159 18.1332 16.5159C16.6402 16.5159 15.4294 15.33 15.4294 13.8668C15.4294 12.4035 16.6401 11.2176 18.1332 11.2176ZM18.1332 17.1019C19.6263 17.1019 20.837 18.2877 20.837 19.751C20.837 21.2143 19.6263 22.4001 18.1332 22.4001C16.6401 22.4001 15.4294 21.2143 15.4294 19.751C15.4294 18.2877 16.6401 17.1019 18.1332 17.1019ZM23.9628 17.1019C25.4558 17.1019 26.6666 18.2877 26.6666 19.751C26.6666 21.2143 25.4558 22.4001 23.9628 22.4001C22.4697 22.4001 21.2589 21.2143 21.2589 19.751C21.2589 18.2877 22.4697 17.1019 23.9628 17.1019ZM15.0075 19.751C15.0075 18.2877 13.7968 17.1019 12.3038 17.1019C10.8107 17.1019 9.59992 18.2877 9.59992 19.751C9.59992 21.2142 10.8107 22.4001 12.3038 22.4001C13.7968 22.4001 15.0075 21.2142 15.0075 19.751Z" fill="#FF4100"/>
<path d="M49.9546 26.544H42.6665V5.14209H50.1016C52.2369 5.14209 54.0712 5.57055 55.6044 6.42746C57.1446 7.27741 58.3278 8.50008 59.1539 10.0955C59.98 11.6909 60.3931 13.5998 60.3931 15.8222C60.3931 18.0515 59.9765 19.9674 59.1434 21.5698C58.3173 23.1721 57.1236 24.4018 55.5624 25.2587C54.0082 26.1156 52.1389 26.544 49.9546 26.544ZM46.5626 23.1895H49.7655C51.2638 23.1895 52.5134 22.9178 53.5146 22.3744C54.5157 21.8241 55.2683 21.0055 55.7724 19.9186C56.2765 18.8249 56.5285 17.4594 56.5285 15.8222C56.5285 14.185 56.2765 12.8265 55.7724 11.7466C55.2683 10.6598 54.5227 9.84815 53.5356 9.31171C52.5554 8.7683 51.3373 8.4966 49.8811 8.4966H46.5626V23.1895Z" fill="#19213D"/>
<path d="M74.6514 19.7932V10.4926H78.453V26.544H74.767V23.6912H74.5989C74.2349 24.5899 73.6363 25.3249 72.8032 25.8961C71.977 26.4674 70.9584 26.7531 69.7472 26.7531C68.6901 26.7531 67.7554 26.5197 66.9433 26.0529C66.1382 25.5791 65.5081 24.8929 65.053 23.9942C64.598 23.0885 64.3704 21.9947 64.3704 20.7129V10.4926H68.172V20.1276C68.172 21.1448 68.452 21.9529 69.0121 22.5521C69.5722 23.1512 70.3073 23.4508 71.2174 23.4508C71.7775 23.4508 72.3201 23.3149 72.8452 23.0432C73.3703 22.7715 73.8008 22.3675 74.1369 21.831C74.4799 21.2876 74.6514 20.6083 74.6514 19.7932Z" fill="#19213D"/>
<path d="M86.2713 21.5071L86.2608 16.9403H86.8699L92.6667 10.4926H97.1089L89.9783 18.3929H89.1907L86.2713 21.5071ZM82.8058 26.544V5.14209H86.6073V26.544H82.8058ZM92.9292 26.544L87.6785 19.2394L90.2409 16.5746L97.4764 26.544H92.9292Z" fill="#19213D"/>
<path d="M106.563 26.8576C104.946 26.8576 103.549 26.5231 102.373 25.8543C101.203 25.1786 100.304 24.2241 99.6737 22.991C99.0437 21.7509 98.7286 20.2914 98.7286 18.6124C98.7286 16.9612 99.0437 15.5121 99.6737 14.2651C100.311 13.0111 101.2 12.0357 102.341 11.339C103.482 10.6354 104.823 10.2836 106.363 10.2836C107.357 10.2836 108.296 10.4438 109.178 10.7643C110.067 11.0778 110.851 11.5655 111.53 12.2273C112.216 12.8892 112.755 13.7321 113.147 14.7563C113.539 15.7734 113.735 16.9856 113.735 18.3929V19.5529H100.514V17.003H110.091C110.084 16.2785 109.927 15.6341 109.619 15.0698C109.311 14.4985 108.88 14.0491 108.327 13.7217C107.781 13.3942 107.144 13.2305 106.416 13.2305C105.639 13.2305 104.956 13.4186 104.368 13.7948C103.78 14.1641 103.321 14.6517 102.992 15.2579C102.67 15.857 102.506 16.5154 102.499 17.2329V19.4588C102.499 20.3924 102.67 21.1936 103.013 21.8624C103.356 22.5242 103.836 23.0328 104.452 23.3881C105.068 23.7364 105.789 23.9106 106.615 23.9106C107.168 23.9106 107.669 23.834 108.117 23.6807C108.565 23.5205 108.954 23.2871 109.283 22.9805C109.612 22.674 109.86 22.2943 110.028 21.8415L113.578 22.2386C113.354 23.1721 112.927 23.9872 112.297 24.6839C111.674 25.3736 110.875 25.9101 109.902 26.2932C108.929 26.6695 107.816 26.8576 106.563 26.8576Z" fill="#19213D"/>
<path d="M117.684 26.5133L125.512 5.14209H127.987L135.816 26.5133H133.398L131.556 21.2924H121.972L120.101 26.5133H117.684ZM122.72 19.141H130.75L126.404 6.86326H127.095L122.72 19.141Z" fill="#19213D"/>
<path d="M143.712 26.8576C142.234 26.8576 140.939 26.4846 139.826 25.7388C138.713 24.993 137.907 23.9794 137.409 22.6981L139.222 21.8375C139.663 22.7745 140.277 23.5204 141.064 24.075C141.87 24.6296 142.752 24.9069 143.712 24.9069C144.633 24.9069 145.41 24.687 146.043 24.2471C146.676 23.7881 146.993 23.1953 146.993 22.4686C146.993 21.9331 146.839 21.5124 146.532 21.2064C146.225 20.8813 145.87 20.6326 145.467 20.4605C145.064 20.2884 144.709 20.1641 144.402 20.0876L142.186 19.4565C140.766 19.0549 139.74 18.4907 139.107 17.764C138.473 17.0373 138.157 16.1958 138.157 15.2396C138.157 14.3408 138.387 13.5567 138.848 12.8874C139.308 12.218 139.932 11.7017 140.718 11.3383C141.505 10.975 142.378 10.7933 143.337 10.7933C144.642 10.7933 145.822 11.1375 146.877 11.826C147.952 12.4953 148.71 13.4324 149.151 14.6372L147.309 15.4978C146.925 14.6372 146.369 13.9679 145.64 13.4898C144.93 12.9926 144.134 12.7439 143.251 12.7439C142.388 12.7439 141.697 12.9639 141.179 13.4037C140.661 13.8436 140.402 14.3982 140.402 15.0675C140.402 15.5839 140.536 15.995 140.805 16.301C141.073 16.607 141.38 16.8365 141.726 16.9895C142.09 17.1425 142.407 17.2572 142.675 17.3337L145.237 18.0796C146.484 18.4429 147.453 19.0071 148.144 19.7721C148.854 20.537 149.209 21.4359 149.209 22.4686C149.209 23.31 148.969 24.0654 148.489 24.7348C148.029 25.4041 147.386 25.93 146.561 26.3125C145.736 26.6759 144.786 26.8576 143.712 26.8576Z" fill="#19213D"/>
<path d="M158.355 26.8576C156.878 26.8576 155.583 26.4846 154.47 25.7388C153.357 24.993 152.551 23.9794 152.052 22.6981L153.865 21.8375C154.307 22.7745 154.921 23.5204 155.707 24.075C156.513 24.6296 157.396 24.9069 158.355 24.9069C159.276 24.9069 160.053 24.687 160.686 24.2471C161.32 23.7881 161.636 23.1953 161.636 22.4686C161.636 21.9331 161.483 21.5124 161.176 21.2064C160.869 20.8813 160.514 20.6326 160.111 20.4605C159.708 20.2884 159.353 20.1641 159.046 20.0876L156.83 19.4565C155.41 19.0549 154.383 18.4907 153.75 17.764C153.117 17.0373 152.8 16.1958 152.8 15.2396C152.8 14.3408 153.031 13.5567 153.491 12.8874C153.952 12.218 154.575 11.7017 155.362 11.3383C156.149 10.975 157.022 10.7933 157.981 10.7933C159.286 10.7933 160.466 11.1375 161.521 11.826C162.595 12.4953 163.353 13.4324 163.795 14.6372L161.953 15.4978C161.569 14.6372 161.013 13.9679 160.283 13.4898C159.573 12.9926 158.777 12.7439 157.895 12.7439C157.031 12.7439 156.34 12.9639 155.822 13.4037C155.304 13.8436 155.045 14.3982 155.045 15.0675C155.045 15.5839 155.18 15.995 155.448 16.301C155.717 16.607 156.024 16.8365 156.369 16.9895C156.734 17.1425 157.05 17.2572 157.319 17.3337L159.88 18.0796C161.128 18.4429 162.097 19.0071 162.787 19.7721C163.497 20.537 163.852 21.4359 163.852 22.4686C163.852 23.31 163.612 24.0654 163.133 24.7348C162.672 25.4041 162.029 25.93 161.204 26.3125C160.379 26.6759 159.43 26.8576 158.355 26.8576Z" fill="#19213D"/>
<path d="M167.645 26.5133V11.1375H169.804V26.5133H167.645ZM167.645 8.29757V5.14209H169.804V8.29757H167.645Z" fill="#19213D"/>
<path d="M179.576 26.8576C178.098 26.8576 176.803 26.4846 175.69 25.7388C174.577 24.993 173.771 23.9794 173.272 22.6981L175.086 21.8375C175.527 22.7745 176.141 23.5204 176.928 24.075C177.734 24.6296 178.616 24.9069 179.576 24.9069C180.496 24.9069 181.274 24.687 181.907 24.2471C182.54 23.7881 182.857 23.1953 182.857 22.4686C182.857 21.9331 182.703 21.5124 182.396 21.2064C182.089 20.8813 181.734 20.6326 181.331 20.4605C180.928 20.2884 180.573 20.1641 180.266 20.0876L178.05 19.4565C176.63 19.0549 175.604 18.4907 174.971 17.764C174.337 17.0373 174.021 16.1958 174.021 15.2396C174.021 14.3408 174.251 13.5567 174.711 12.8874C175.172 12.218 175.796 11.7017 176.582 11.3383C177.369 10.975 178.242 10.7933 179.201 10.7933C180.506 10.7933 181.686 11.1375 182.741 11.826C183.816 12.4953 184.574 13.4324 185.015 14.6372L183.173 15.4978C182.789 14.6372 182.233 13.9679 181.504 13.4898C180.794 12.9926 179.998 12.7439 179.115 12.7439C178.252 12.7439 177.561 12.9639 177.043 13.4037C176.525 13.8436 176.266 14.3982 176.266 15.0675C176.266 15.5839 176.4 15.995 176.669 16.301C176.937 16.607 177.244 16.8365 177.59 16.9895C177.954 17.1425 178.271 17.2572 178.539 17.3337L181.101 18.0796C182.348 18.4429 183.317 19.0071 184.008 19.7721C184.718 20.537 185.073 21.4359 185.073 22.4686C185.073 23.31 184.833 24.0654 184.353 24.7348C183.893 25.4041 183.25 25.93 182.425 26.3125C181.6 26.6759 180.65 26.8576 179.576 26.8576Z" fill="#19213D"/>
<path d="M194.766 26.6854C193.384 26.6854 192.319 26.2838 191.571 25.4806C190.823 24.6774 190.449 23.53 190.449 22.0383V13.289H187.599V11.1375H188.319C188.971 11.1375 189.489 10.9271 189.873 10.5064C190.257 10.0666 190.449 9.52152 190.449 8.8713V7.58042H192.607V11.1375H196.003V13.289H192.607V22.0383C192.607 22.5546 192.684 23.0136 192.838 23.4152C192.991 23.7977 193.25 24.1037 193.615 24.3332C193.998 24.5627 194.507 24.6774 195.14 24.6774C195.293 24.6774 195.476 24.6678 195.687 24.6487C195.898 24.6296 196.08 24.6105 196.234 24.5913V26.5133C196.003 26.5707 195.744 26.6089 195.457 26.6281C195.169 26.6663 194.939 26.6854 194.766 26.6854Z" fill="#19213D"/>
<path d="M204.204 26.8576C203.225 26.8576 202.352 26.6759 201.585 26.3125C200.817 25.93 200.213 25.4137 199.772 24.7635C199.33 24.1132 199.11 23.3674 199.11 22.5259C199.11 21.7227 199.282 20.996 199.628 20.3458C199.973 19.6764 200.51 19.1123 201.24 18.6533C201.969 18.1943 202.899 17.8692 204.031 17.678L210.075 16.6739V18.6246L204.549 19.5426C203.437 19.7338 202.631 20.0876 202.132 20.604C201.652 21.1203 201.412 21.7323 201.412 22.4399C201.412 23.1283 201.681 23.7116 202.218 24.1897C202.775 24.6678 203.484 24.9069 204.348 24.9069C205.403 24.9069 206.324 24.687 207.111 24.2471C207.898 23.7881 208.512 23.1762 208.953 22.4112C209.394 21.6462 209.615 20.7952 209.615 19.8581V15.9568C209.615 15.0388 209.279 14.293 208.608 13.7193C207.936 13.1455 207.063 12.8587 205.988 12.8587C205.048 12.8587 204.223 13.0977 203.513 13.5758C202.803 14.0348 202.276 14.6372 201.93 15.3831L199.973 14.3217C200.261 13.6715 200.712 13.0786 201.326 12.5431C201.959 12.0077 202.679 11.5869 203.484 11.2809C204.29 10.9558 205.125 10.7933 205.988 10.7933C207.12 10.7933 208.118 11.0132 208.982 11.4531C209.864 11.8929 210.545 12.5049 211.025 13.289C211.524 14.0539 211.773 14.9432 211.773 15.9568V26.5133H209.615V23.4439L209.931 23.7594C209.663 24.3332 209.241 24.8591 208.665 25.3372C208.109 25.7962 207.447 26.1691 206.679 26.4559C205.931 26.7237 205.106 26.8576 204.204 26.8576Z" fill="#19213D"/>
<path d="M216.213 26.5133V11.1375H218.372V14.1209L217.883 14.0061C218.266 13.0117 218.89 12.2276 219.753 11.6539C220.636 11.0801 221.653 10.7933 222.804 10.7933C223.898 10.7933 224.876 11.0419 225.74 11.5391C226.623 12.0363 227.313 12.7248 227.812 13.6045C228.33 14.4651 228.589 15.4404 228.589 16.5305V26.5133H226.431V17.3624C226.431 16.4253 226.258 15.6317 225.913 14.9815C225.586 14.3312 225.116 13.834 224.502 13.4898C223.908 13.1264 223.217 12.9447 222.43 12.9447C221.643 12.9447 220.943 13.1264 220.329 13.4898C219.715 13.834 219.235 14.3408 218.89 15.0101C218.545 15.6604 218.372 16.4445 218.372 17.3624V26.5133H216.213Z" fill="#19213D"/>
<path d="M238.612 26.6854C237.231 26.6854 236.166 26.2838 235.417 25.4806C234.669 24.6774 234.295 23.53 234.295 22.0383V13.289H231.446V11.1375H232.165C232.817 11.1375 233.335 10.9271 233.719 10.5064C234.103 10.0666 234.295 9.52152 234.295 8.8713V7.58042H236.453V11.1375H239.85V13.289H236.453V22.0383C236.453 22.5546 236.53 23.0136 236.684 23.4152C236.837 23.7977 237.096 24.1037 237.461 24.3332C237.845 24.5627 238.353 24.6774 238.986 24.6774C239.14 24.6774 239.322 24.6678 239.533 24.6487C239.744 24.6296 239.926 24.6105 240.08 24.5913V26.5133C239.85 26.5707 239.591 26.6089 239.303 26.6281C239.015 26.6663 238.785 26.6854 238.612 26.6854Z" fill="#19213D"/>
</svg>
